<svg width="44" height="44" viewBox="0 0 44 44" fill="none" xmlns="http://www.w3.org/2000/svg">
<g clip-path="url(#clip0_78_2)">
<path d="M38.6833 0.550003C39.9475 0.550003 41.16 1.0522 42.0539 1.94613C42.9478 2.84005 43.45 4.05247 43.45 5.31667V38.6833C43.45 39.9475 42.9478 41.16 42.0539 42.0539C41.16 42.9478 39.9475 43.45 38.6833 43.45H5.31667C4.05247 43.45 2.84005 42.9478 1.94613 42.0539C1.0522 41.16 0.550003 39.9475 0.550003 38.6833V5.31667C0.550003 4.05247 1.0522 2.84005 1.94613 1.94613C2.84005 1.0522 4.05247 0.550003 5.31667 0.550003H38.6833ZM37.4917 37.4917V24.86C37.4917 22.7994 36.6731 20.8231 35.216 19.366C33.7589 17.9089 31.7826 17.0903 29.722 17.0903C27.6962 17.0903 25.3367 18.3297 24.1927 20.1887V17.5432H17.5432V37.4917H24.1927V25.7418C24.1927 23.9067 25.6703 22.4052 27.5055 22.4052C28.3904 22.4052 29.2391 22.7567 29.8649 23.3825C30.4906 24.0082 30.8422 24.8569 30.8422 25.7418V37.4917H37.4917ZM9.79734 13.8013C10.8593 13.8013 11.8777 13.3795 12.6286 12.6286C13.3795 11.8777 13.8013 10.8593 13.8013 9.79734C13.8013 7.58084 12.0138 5.7695 9.79734 5.7695C8.72909 5.7695 7.70459 6.19386 6.94923 6.94923C6.19386 7.70459 5.7695 8.72909 5.7695 9.79734C5.7695 12.0138 7.58084 13.8013 9.79734 13.8013ZM13.1102 37.4917V17.5432H6.50834V37.4917H13.1102Z" fill="black"/>
</g>
<defs>
<clipPath id="clip0_78_2">
<rect width="44" height="44" fill="white"/>
</clipPath>
</defs>
</svg>
