<svg width="52" height="52" viewBox="0 0 52 52" fill="none" xmlns="http://www.w3.org/2000/svg">
<g clip-path="url(#clip0_1_60)">
<path fill-rule="evenodd" clip-rule="evenodd" d="M34.7165 9.7565C38.6815 9.4835 41.7452 11.7975 43.784 14.4668C45.838 17.16 47.2528 20.6765 48.0307 24.1345C48.8042 27.5925 49.0122 31.3083 48.3687 34.476C47.7512 37.518 46.1023 40.9977 42.3735 42.1135C38.8635 43.1622 35.7868 41.6368 33.5942 39.7908C31.3928 37.9383 29.5295 35.3427 28.0648 32.9095C27.3797 31.7662 26.7365 30.5983 26.1365 29.4082C25.5371 30.5975 24.8946 31.7647 24.2103 32.9073C22.7457 35.3427 20.8823 37.9383 18.681 39.7908C16.4862 41.6368 13.4117 43.1622 9.90167 42.1135C6.17284 40.9977 4.52401 37.5202 3.90651 34.476C3.26517 31.3083 3.47317 27.5925 4.24667 24.1345C5.02234 20.6765 6.43717 17.1578 8.49334 14.4668C10.53 11.7975 13.5937 9.4835 17.5587 9.7565C21.2767 10.0165 23.9785 12.5363 25.662 14.6727L26.1387 15.2988L26.6132 14.6705C28.2967 12.5363 30.9985 10.0143 34.7165 9.7565ZM17.108 16.2413C16.198 16.1785 15.0063 16.6443 13.6587 18.4123C12.3283 20.1565 11.2233 22.7305 10.5885 25.558C9.95584 28.3855 9.86267 31.1458 10.2765 33.1847C10.634 34.9397 11.2082 35.5702 11.5592 35.7912L11.7065 35.8648L11.765 35.8865C12.2677 36.0382 13.0953 35.9948 14.495 34.8162C15.8925 33.6418 17.3182 31.7547 18.642 29.5577C19.2313 28.5762 19.7795 27.5708 20.2713 26.6045L20.8347 25.467L21.3395 24.3902L21.7858 23.3978L22.165 22.516L22.4748 21.7663C22.0556 20.9243 21.5755 20.114 21.0383 19.3418C19.643 17.3572 18.2433 16.3215 17.108 16.2435V16.2413ZM35.1672 16.2413C34.0318 16.3215 32.6322 17.3572 31.2368 19.3418C30.6996 20.114 30.2195 20.9243 29.8003 21.7663L30.2922 22.9428L30.7038 23.8832L30.9357 24.3902L31.4427 25.467L32.006 26.6045C32.4978 27.5708 33.0438 28.5762 33.6332 29.5577C34.957 31.7547 36.3848 33.6418 37.778 34.8162C39.0802 35.9125 39.8862 36.0252 40.3997 35.9147L40.5123 35.8865C40.794 35.7998 41.5588 35.347 41.9987 33.1825C42.4103 31.1458 42.3215 28.3855 41.6867 25.5558C41.054 22.7305 39.949 20.1565 38.6165 18.4123C37.2667 16.6443 36.0772 16.1807 35.1672 16.2413Z" fill="black"/>
</g>
<defs>
<clipPath id="clip0_1_60">
<rect width="52" height="52" fill="white"/>
</clipPath>
</defs>
</svg>
