<svg width="52" height="52" viewBox="0 0 52 52" fill="none" xmlns="http://www.w3.org/2000/svg">
<path d="M48.6633 13C46.995 13.7583 45.1967 14.2567 43.3333 14.495C45.24 13.3467 46.7133 11.5267 47.4067 9.33834C45.6083 10.4217 43.615 11.18 41.5133 11.6133C39.8017 9.75001 37.3967 8.66667 34.6667 8.66667C29.575 8.66667 25.415 12.8267 25.415 17.9617C25.415 18.6983 25.5017 19.4133 25.6533 20.085C17.94 19.695 11.0717 15.99 6.5 10.3783C5.69834 11.7433 5.24334 13.3467 5.24334 15.0367C5.24334 18.265 6.86834 21.125 9.38167 22.75C7.84334 22.75 6.41334 22.3167 5.15667 21.6667V21.7317C5.15667 26.2383 8.36334 30.0083 12.61 30.8533C11.2466 31.2265 9.81521 31.2784 8.42834 31.005C9.01682 32.852 10.1693 34.4682 11.7239 35.6264C13.2784 36.7845 15.1568 37.4263 17.095 37.4617C13.8095 40.0626 9.737 41.4685 5.54667 41.4483C4.81 41.4483 4.07334 41.405 3.33667 41.3183C7.45334 43.9617 12.35 45.5 17.5933 45.5C34.6667 45.5 44.0483 31.33 44.0483 19.045C44.0483 18.6333 44.0483 18.2433 44.0267 17.8317C45.8467 16.5317 47.4067 14.885 48.6633 13Z" fill="black"/>
</svg>
